<svg width="720" height="720" viewBox="0 0 720 720" fill="none" xmlns="http://www.w3.org/2000/svg">
<rect width="720" height="720" rx="360" fill="#0F0F0F"></rect>
<path d="M105 396V326H138.1C145.833 326 152.633 327.433 158.5 330.3C164.367 333.167 168.933 337.2 172.2 342.4C175.533 347.6 177.2 353.8 177.2 361C177.2 368.133 175.533 374.333 172.2 379.6C168.933 384.8 164.367 388.833 158.5 391.7C152.633 394.567 145.833 396 138.1 396H105ZM124.8 380.2H137.3C141.3 380.2 144.767 379.467 147.7 378C150.7 376.467 153.033 374.267 154.7 371.4C156.367 368.467 157.2 365 157.2 361C157.2 356.933 156.367 353.467 154.7 350.6C153.033 347.733 150.7 345.567 147.7 344.1C144.767 342.567 141.3 341.8 137.3 341.8H124.8V380.2ZM309.822 396V341.7H288.322V326H351.022V341.7H329.622V396H309.822ZM363.398 396V326H383.198V396H363.398ZM402.285 396V326H418.585L457.185 372.6H449.485V326H468.885V396H452.585L413.985 349.4H421.685V396H402.285ZM522.752 397.4C517.218 397.4 512.085 396.533 507.352 394.8C502.685 393 498.618 390.467 495.152 387.2C491.752 383.933 489.085 380.1 487.152 375.7C485.218 371.233 484.252 366.333 484.252 361C484.252 355.667 485.218 350.8 487.152 346.4C489.085 341.933 491.752 338.067 495.152 334.8C498.618 331.533 502.685 329.033 507.352 327.3C512.085 325.5 517.218 324.6 522.752 324.6C529.218 324.6 534.985 325.733 540.052 328C545.185 330.267 549.452 333.533 552.852 337.8L540.252 349.2C537.985 346.533 535.485 344.5 532.752 343.1C530.085 341.7 527.085 341 523.752 341C520.885 341 518.252 341.467 515.852 342.4C513.452 343.333 511.385 344.7 509.652 346.5C507.985 348.233 506.652 350.333 505.652 352.8C504.718 355.267 504.252 358 504.252 361C504.252 364 504.718 366.733 505.652 369.2C506.652 371.667 507.985 373.8 509.652 375.6C511.385 377.333 513.452 378.667 515.852 379.6C518.252 380.533 520.885 381 523.752 381C527.085 381 530.085 380.3 532.752 378.9C535.485 377.5 537.985 375.467 540.252 372.8L552.852 384.2C549.452 388.4 545.185 391.667 540.052 394C534.985 396.267 529.218 397.4 522.752 397.4ZM579.92 396V341.7H558.42V326H621.12V341.7H599.72V396H579.92Z" fill="#FAFAFA"></path>
<path d="M267.973 324.598C262.783 324.799 257.971 326.124 253.535 328.575C249.106 331.025 244.982 334.076 241.159 337.734C237.336 341.398 233.831 345.257 230.633 349.303C227.44 353.356 224.489 357.055 221.797 360.401C219.105 363.747 216.59 366.268 214.281 367.959C211.96 369.643 209.827 369.985 207.872 368.972C206.576 368.3 205.622 367.222 205.009 365.738C204.402 364.259 204.337 362.257 204.809 359.753C205.274 357.25 206.47 354.151 208.378 350.464C210.475 346.417 213.085 342.512 216.213 338.765C211.665 339.248 206.929 338.459 202.564 336.197C195.39 332.486 190.86 325.659 189.764 318.219C185.818 323.497 182.324 329.087 179.267 334.983C173.206 346.694 169.878 357.385 169.277 367.04C168.682 376.7 170.255 385.012 174.013 391.969C177.765 398.931 183.167 404.233 190.218 407.885C196.291 411.03 201.946 412.515 207.194 412.338C212.443 412.167 217.279 410.86 221.709 408.403C226.144 405.959 230.279 402.878 234.126 399.161C237.978 395.45 241.513 391.609 244.735 387.639C247.957 383.669 250.943 380.023 253.694 376.7C256.445 373.384 259.008 370.886 261.376 369.225C263.749 367.57 265.97 367.27 268.026 368.336C269.328 369.007 270.194 370.073 270.606 371.528C271.018 372.983 270.93 374.892 270.323 377.26C269.717 379.628 268.462 382.656 266.547 386.343C263.29 392.628 258.99 398.625 253.641 404.309C248.293 409.994 242.638 414.741 236.688 418.529L258.265 445.372C264.71 441.426 271.319 435.565 278.093 427.789C284.867 420.025 290.722 411.36 295.659 401.818C301.773 390.001 305.095 379.269 305.614 369.643C306.132 360.006 304.512 351.713 300.754 344.75C297.007 337.787 291.659 332.515 284.714 328.922C278.753 325.835 273.174 324.386 267.979 324.593L267.973 324.598Z" fill="#73F3A4"></path>
<path d="M222.887 296.931C232.724 302.02 236.57 314.119 231.481 323.95C228.329 330.041 222.492 333.829 216.171 334.63C212.284 335.125 208.201 334.477 204.461 332.539C197.145 328.751 193.145 321.099 193.67 313.377C193.846 310.709 194.565 308.034 195.867 305.513C200.956 295.682 213.055 291.835 222.887 296.931Z" fill="#73F3A4"></path>
</svg>