<svg width="720" height="720" viewBox="0 0 720 720" fill="none" xmlns="http://www.w3.org/2000/svg">
<rect width="720" height="720" rx="360" fill="#0F0F0F"></rect>
<path d="M467.42 199.446C449.212 200.149 432.326 204.799 416.763 213.397C401.22 221.995 386.753 232.701 373.339 245.535C359.926 258.391 347.628 271.928 336.406 286.127C325.204 300.347 314.849 313.326 305.404 325.066C295.958 336.805 287.133 345.651 279.031 351.583C270.888 357.494 263.406 358.693 256.544 355.138C251.998 352.782 248.649 348.999 246.5 343.791C244.371 338.603 244.144 331.576 245.797 322.792C247.43 314.008 251.625 303.137 258.322 290.199C265.68 276 274.836 262.297 285.81 249.152C269.855 250.847 253.238 248.078 237.923 240.141C212.749 227.12 196.855 203.166 193.011 177.062C179.164 195.581 166.907 215.195 156.181 235.883C134.913 276.971 123.236 314.484 121.128 348.359C119.04 382.254 124.559 411.417 137.745 435.826C150.91 460.255 169.863 478.856 194.602 491.671C215.911 502.707 235.752 507.916 254.168 507.296C272.583 506.696 289.551 502.108 305.094 493.489C320.657 484.912 335.165 474.103 348.662 461.061C362.179 448.04 374.579 434.565 385.885 420.635C397.19 406.704 407.669 393.911 417.321 382.254C426.973 370.618 435.963 361.855 444.272 356.027C452.601 350.219 460.393 349.165 467.606 352.906C472.174 355.262 475.212 359.003 476.659 364.108C478.105 369.213 477.795 375.909 475.667 384.218C473.538 392.526 469.135 403.15 462.418 416.088C450.989 438.14 435.901 459.18 417.135 479.125C398.368 499.07 378.527 515.728 357.652 529.018L433.359 623.202C455.97 609.354 479.159 588.789 502.928 561.508C526.696 534.267 547.24 503.865 564.56 470.383C586.013 428.923 597.67 391.265 599.488 357.494C601.307 323.681 595.624 294.581 582.437 270.151C569.293 245.721 550.526 227.224 526.158 214.616C505.242 203.786 485.67 198.702 467.441 199.425L467.42 199.446Z" fill="black" fill-opacity="0.01"></path>
<path d="M309.227 102.368C343.742 120.226 357.239 162.678 339.381 197.172C328.324 218.543 307.842 231.833 285.665 234.644C272.025 236.38 257.702 234.106 244.577 227.306C218.908 214.017 204.874 187.169 206.714 160.073C207.334 150.711 209.855 141.328 214.423 132.482C232.28 97.9868 274.732 84.4906 309.227 102.368Z" fill="black" fill-opacity="0.01"></path>
<path d="M467.42 199.446C449.212 200.149 432.326 204.799 416.763 213.397C401.22 221.995 386.753 232.701 373.339 245.535C359.926 258.391 347.628 271.928 336.406 286.127C325.204 300.347 314.849 313.326 305.404 325.066C295.958 336.805 287.133 345.651 279.031 351.583C270.888 357.494 263.406 358.693 256.544 355.138C251.998 352.782 248.649 348.999 246.5 343.791C244.371 338.603 244.144 331.576 245.797 322.792C247.43 314.008 251.625 303.137 258.322 290.199C265.68 276 274.836 262.297 285.81 249.152C269.855 250.847 253.238 248.078 237.923 240.141C212.749 227.12 196.855 203.166 193.011 177.062C179.164 195.581 166.907 215.195 156.181 235.883C134.913 276.971 123.236 314.484 121.128 348.359C119.04 382.254 124.559 411.417 137.745 435.826C150.91 460.255 169.863 478.856 194.602 491.671C215.911 502.707 235.752 507.916 254.168 507.296C272.583 506.696 289.551 502.108 305.094 493.489C320.657 484.912 335.165 474.103 348.662 461.061C362.179 448.04 374.579 434.565 385.885 420.635C397.19 406.704 407.669 393.911 417.321 382.254C426.973 370.618 435.963 361.855 444.272 356.027C452.601 350.219 460.393 349.165 467.606 352.906C472.174 355.262 475.212 359.003 476.659 364.108C478.105 369.213 477.795 375.909 475.667 384.218C473.538 392.526 469.135 403.15 462.418 416.088C450.989 438.14 435.901 459.18 417.135 479.125C398.368 499.07 378.527 515.728 357.652 529.018L433.359 623.202C455.97 609.354 479.159 588.789 502.928 561.508C526.696 534.267 547.24 503.865 564.56 470.383C586.013 428.923 597.67 391.265 599.488 357.494C601.307 323.681 595.624 294.581 582.437 270.151C569.293 245.721 550.526 227.224 526.158 214.616C505.242 203.786 485.67 198.702 467.441 199.425L467.42 199.446Z" stroke="#73F3A4" stroke-width="5"></path>
<path d="M309.227 102.368C343.742 120.226 357.239 162.678 339.381 197.172C328.324 218.543 307.842 231.833 285.665 234.644C272.025 236.38 257.702 234.106 244.577 227.306C218.908 214.017 204.874 187.169 206.714 160.073C207.334 150.711 209.855 141.328 214.423 132.482C232.28 97.9868 274.732 84.4906 309.227 102.368Z" stroke="#73F3A4" stroke-width="5"></path>
<path d="M467.42 199.446C449.212 200.149 432.326 204.799 416.763 213.397C401.22 221.995 386.753 232.701 373.339 245.535C359.926 258.391 347.628 271.928 336.406 286.127C325.204 300.347 314.849 313.326 305.404 325.066C295.958 336.805 287.133 345.651 279.031 351.583C270.888 357.494 263.406 358.693 256.544 355.138C251.998 352.782 248.649 348.999 246.5 343.791C244.371 338.603 244.144 331.576 245.797 322.792C247.43 314.008 251.625 303.137 258.322 290.199C265.68 276 274.836 262.297 285.81 249.152C269.855 250.847 253.238 248.078 237.923 240.141C212.749 227.12 196.855 203.166 193.011 177.062C179.164 195.581 166.907 215.195 156.181 235.883C134.913 276.971 123.236 314.484 121.128 348.359C119.04 382.254 124.559 411.417 137.745 435.826C150.91 460.255 169.863 478.856 194.602 491.671C215.911 502.707 235.752 507.916 254.168 507.296C272.583 506.696 289.551 502.108 305.094 493.489C320.657 484.912 335.165 474.103 348.662 461.061C362.179 448.04 374.579 434.565 385.885 420.635C397.19 406.704 407.669 393.911 417.321 382.254C426.973 370.618 435.963 361.855 444.272 356.027C452.601 350.219 460.393 349.165 467.606 352.906C472.174 355.262 475.212 359.003 476.659 364.108C478.105 369.213 477.795 375.909 475.667 384.218C473.538 392.526 469.135 403.15 462.418 416.088C450.989 438.14 435.901 459.18 417.135 479.125C398.368 499.07 378.527 515.728 357.652 529.018L433.359 623.202C455.97 609.354 479.159 588.789 502.928 561.508C526.696 534.267 547.24 503.865 564.56 470.383C586.013 428.923 597.67 391.265 599.488 357.494C601.307 323.681 595.624 294.581 582.437 270.151C569.293 245.721 550.526 227.224 526.158 214.616C505.242 203.786 485.67 198.702 467.441 199.425L467.42 199.446Z" fill="#0F0F0F" fill-opacity="0.6"></path>
<path d="M309.227 102.368C343.742 120.226 357.239 162.678 339.381 197.172C328.324 218.543 307.842 231.833 285.665 234.644C272.025 236.38 257.702 234.106 244.577 227.306C218.908 214.017 204.874 187.169 206.714 160.073C207.334 150.711 209.855 141.328 214.423 132.482C232.28 97.9868 274.732 84.4906 309.227 102.368Z" fill="#0F0F0F" fill-opacity="0.6"></path>
</svg>