<svg width="720" height="720" viewBox="0 0 720 720" fill="none" xmlns="http://www.w3.org/2000/svg">
<rect width="720" height="720" rx="360" fill="#0F0F0F"></rect>
<path d="M440.703 237.183C426.874 237.717 414.05 241.249 402.23 247.779C390.426 254.309 379.438 262.44 369.251 272.187C359.064 281.951 349.724 292.232 341.201 303.016C332.693 313.815 324.829 323.673 317.656 332.588C310.482 341.504 303.78 348.222 297.627 352.727C291.442 357.217 285.76 358.127 280.548 355.427C277.095 353.638 274.552 350.765 272.92 346.81C271.303 342.87 271.13 337.533 272.386 330.862C273.626 324.191 276.813 315.934 281.898 306.108C287.486 295.324 294.44 284.917 302.775 274.934C290.657 276.221 278.037 274.118 266.406 268.09C247.287 258.201 235.216 240.009 232.297 220.184C221.78 234.248 212.472 249.144 204.325 264.857C188.173 296.062 179.304 324.552 177.703 350.279C176.118 376.021 180.309 398.17 190.323 416.707C200.322 435.261 214.716 449.388 233.505 459.12C249.689 467.502 264.757 471.458 278.743 470.987C292.729 470.532 305.616 467.047 317.42 460.501C329.24 453.987 340.259 445.778 350.509 435.873C360.775 425.984 370.193 415.75 378.779 405.17C387.365 394.591 395.323 384.874 402.654 376.021C409.984 367.184 416.812 360.529 423.122 356.102C429.448 351.691 435.366 350.891 440.844 353.732C444.313 355.521 446.62 358.363 447.719 362.24C448.818 366.117 448.582 371.202 446.966 377.513C445.349 383.823 442.006 391.891 436.904 401.717C428.224 418.466 416.765 434.445 402.512 449.592C388.26 464.74 373.191 477.391 357.337 487.484L414.834 559.014C432.007 548.498 449.618 532.879 467.67 512.16C485.721 491.471 501.324 468.381 514.478 442.952C530.771 411.465 539.624 382.865 541.005 357.217C542.386 331.537 538.07 309.436 528.055 290.882C518.072 272.328 503.819 258.28 485.313 248.705C469.428 240.48 454.563 236.618 440.718 237.168L440.703 237.183Z" fill="#73F3A4"></path>
<path d="M320.559 163.456C346.773 177.018 357.023 209.259 343.461 235.457C335.063 251.687 319.508 261.78 302.665 263.915C292.305 265.234 281.427 263.507 271.46 258.343C251.964 248.25 241.306 227.86 242.703 207.281C243.174 200.171 245.089 193.044 248.558 186.326C262.12 160.128 294.361 149.878 320.559 163.456Z" fill="#73F3A4"></path>
<path d="M440.703 237.183C426.874 237.717 414.05 241.249 402.23 247.779C390.426 254.309 379.438 262.44 369.251 272.187C359.064 281.951 349.724 292.232 341.201 303.016C332.693 313.815 324.829 323.673 317.656 332.588C310.482 341.504 303.78 348.222 297.627 352.727C291.442 357.217 285.76 358.127 280.548 355.427C277.095 353.638 274.552 350.765 272.92 346.81C271.303 342.87 271.13 337.533 272.386 330.862C273.626 324.191 276.813 315.934 281.898 306.108C287.486 295.324 294.44 284.917 302.775 274.934C290.657 276.221 278.037 274.118 266.406 268.09C247.287 258.201 235.216 240.009 232.297 220.184C221.78 234.248 212.472 249.144 204.325 264.857C188.173 296.062 179.304 324.552 177.703 350.279C176.118 376.021 180.309 398.17 190.323 416.707C200.322 435.261 214.716 449.388 233.505 459.12C249.689 467.502 264.757 471.458 278.743 470.987C292.729 470.532 305.616 467.047 317.42 460.501C329.24 453.987 340.259 445.778 350.509 435.873C360.775 425.984 370.193 415.75 378.779 405.17C387.365 394.591 395.323 384.874 402.654 376.021C409.984 367.184 416.812 360.529 423.122 356.102C429.448 351.691 435.366 350.891 440.844 353.732C444.313 355.521 446.62 358.363 447.719 362.24C448.818 366.117 448.582 371.202 446.966 377.513C445.349 383.823 442.006 391.891 436.904 401.717C428.224 418.466 416.765 434.445 402.512 449.592C388.26 464.74 373.191 477.391 357.337 487.484L414.834 559.014C432.007 548.498 449.618 532.879 467.67 512.16C485.721 491.471 501.324 468.381 514.478 442.952C530.771 411.465 539.624 382.865 541.005 357.217C542.386 331.537 538.07 309.436 528.055 290.882C518.072 272.328 503.819 258.28 485.313 248.705C469.428 240.48 454.563 236.618 440.718 237.168L440.703 237.183Z" stroke="black" stroke-opacity="0.01" stroke-width="5"></path>
<path d="M320.559 163.456C346.773 177.018 357.023 209.259 343.461 235.457C335.063 251.687 319.508 261.78 302.665 263.915C292.305 265.234 281.427 263.507 271.46 258.343C251.964 248.25 241.306 227.86 242.703 207.281C243.174 200.171 245.089 193.044 248.558 186.326C262.12 160.128 294.361 149.878 320.559 163.456Z" stroke="black" stroke-opacity="0.01" stroke-width="5"></path>
</svg>